<svg xmlns="http://www.w3.org/2000/svg" xmlns:xlink="http://www.w3.org/1999/xlink" version="1.0" x="0px" y="0px" viewBox="0 0 100 84.125" enable-background="new 0 0 100 67.3" xml:space="preserve"><path fill="#D95204" d="M96.5,27.6c-7.1-17.3-23-22.8-27.8-24.1C58.6,0.8,34.4,0.8,20.9,7.1C8.8,12.7,7.7,22.2,7.1,27.3  C7,28.2,6.9,29,6.8,29.5c-0.2,0.9-0.6,2.3-1.1,3.9C3.9,39,1.6,46.5,3,51.1c1.5,5,7.8,12.2,10,12.2c1.4,0,1.7-1.3,2.9-7  c0.5-2.5,1.4-6.4,2-7.6c0.9,0.2,3.3,0.7,5.7,1.3c8.9,2.1,23.8,5.5,31.5,5.5c11.1,0,25.7-1.3,31.6-4.2  C91.2,49.1,102.9,43.4,96.5,27.6z M94.4,28.5c0.8,2,1.5,4.2,1.7,6.4c-1.9,2.1-4,3-6,2.7c-3.5-0.6-6.9-4.9-9.4-11.7  C77,16,73.4,9.4,65.7,5.2c0.9,0.2,1.7,0.3,2.4,0.5C72.6,6.9,87.7,12.1,94.4,28.5z M32.8,5.8c7,0,26.4,0.2,34.1,10.3  c5.5,7.2,6.5,13.7,7.4,20c0.3,2.3,0.7,4.7,1.3,7.2c0.6,2.3,1.8,4,3.7,5.1c1.5,0.8,3.3,1.1,5,1.1c0.5,0,0.9,0,1.4-0.1  c-1.3,0.6-3.1,1.2-5.3,1.7c-1.5-0.3-4.6-1.5-6.3-6.1c-0.8-2.2-0.9-4.3-1.1-6.4c-0.2-4.2-0.5-9-5.6-16.8C60.8,11.5,51.8,10,35.5,7.4  c-1.8-0.3-3.7-0.6-5.7-0.9C30.8,6.2,31.8,6,32.8,5.8z M26.7,7.3c3.1,0.5,5.9,1,8.5,1.4c16.4,2.7,24.7,4,31,13.7  c4.9,7.5,5.1,12.1,5.4,16.1c0.1,2.3,0.2,4.4,1.1,6.8c1.3,3.4,3.2,5.2,5,6.1c-0.4,0.1-0.8,0.1-1.2,0.2c-2.7-0.8-9.1-3.1-12.3-7.7  c-1.6-2.2-1.9-3.5-2.4-5.2c-0.8-3-1.8-6.6-9.1-16.6C43.2,9.1,29,8.5,21.7,9.2c0,0,0.1,0,0.1,0C23.3,8.4,25,7.8,26.7,7.3z M18.4,11  c4.2-0.9,22.1-3.4,33.4,11.9c7.2,9.8,8.1,13.3,8.9,16.1c0.5,1.7,0.9,3.3,2.6,5.7c2.7,3.8,7.1,6.1,10.4,7.3c-2.8,0.4-5.9,0.6-8.9,0.8  c-2.3-0.6-6.2-2-9.1-5.2c-1.5-1.6-3-4.7-4.8-8.2c-3.7-7.4-8.3-16.7-16.5-21.5c-10.1-5.9-16.5-4.3-20.5-2.8  C15,13.7,16.5,12.3,18.4,11z M17.3,37.5c-2.9-4.1-5.8-6.4-8.5-6.9c0-0.2,0.1-0.4,0.1-0.5c0,0,0-0.1,0-0.1c2.1-0.7,4.6-0.9,10.9,8  c4.1,5.8,8.1,9.4,10.7,11.4c-1.3-0.3-2.5-0.6-3.7-0.8C24.4,46.6,21.1,42.7,17.3,37.5z M11.3,19.4c4.7-0.3,17.7,1.4,25.3,13.2  l1.6,2.5c5.3,8.2,8.9,13.8,14.5,17.3c-2-0.9-4.5-2.5-6.7-5.2c-5-6.1-14.4-17-19.8-21.6c-5.7-4.9-11.6-5.5-15.2-5.2  C11,20,11.1,19.7,11.3,19.4z M21,37.1c-6-8.4-9.1-9.3-11.8-8.7c0-0.3,0.1-0.6,0.1-0.9c0.1-1.1,0.3-2.5,0.6-3.9  c1.8-0.8,4.8-1.7,13.6,11.5c5.8,8.7,12.2,13.5,16.8,16.2c-2-0.4-4.1-0.8-6.1-1.2C32.7,49.2,27.1,45.5,21,37.1z M24.6,34.4  c-7.8-11.8-11.6-13.1-14.3-12.3c0-0.1,0.1-0.2,0.1-0.3c3.4-0.3,9.2,0.1,14.8,4.9c5.4,4.6,14.7,15.3,19.6,21.4c1.9,2.3,4,3.9,5.8,4.9  c-1.7-0.2-3.5-0.4-5.4-0.7C41.6,50.7,32.4,46,24.6,34.4z M39.3,34.4l-1.6-2.5C30.8,21.2,18.8,17.8,11.9,18c0.1-0.3,0.3-0.5,0.5-0.8  c0.2-0.1,0.5-0.2,0.7-0.3c3.7-1.5,10-4,20.5,2.3c7.8,4.6,12.3,13.7,15.9,21c1.8,3.6,3.4,6.8,5,8.5c2,2.2,4.3,3.6,6.4,4.5  c-1.1,0-2.3,0.1-3.4,0.1C49.7,50.4,45.9,44.7,39.3,34.4z M6,40.2c3.8-0.3,6.8,2.1,9.8,7.5c-0.2,0.4-0.4,0.8-0.6,1.4  C13,45,9,41.5,5.8,41.1C5.9,40.8,6,40.5,6,40.2z M13.7,55.8c-0.3,1.6-0.8,3.7-1.1,4.8c-1.8-1.4-6.1-5.9-7.4-10.2c-0.6-2-0.3-5,0.4-8  c2.8,0.3,7.2,4,9.2,8.7C14.4,52.4,14.1,53.9,13.7,55.8z M17.5,46.4c-0.3,0-0.5,0.1-0.7,0.2c-3.1-5.5-6.3-7.9-10.4-7.8  c0.5-1.7,1-3.3,1.4-4.7c0.2-0.8,0.5-1.5,0.7-2.2c2.4,0.4,5,2.5,7.8,6.4c2.9,4.1,5.6,7.3,7.9,9.6c0,0,0,0,0,0  C19.6,46.8,18.1,46.4,17.5,46.4z M89.3,47.3c-1.9,0.5-6.3,1.5-9.4-0.2c-1.5-0.8-2.6-2.2-3-4.2c-0.6-2.4-0.9-4.7-1.3-7  c-1-6.4-1.9-13.1-7.7-20.6c-6-7.8-18.4-10-27.4-10.6c3.7-0.4,7.4-0.5,10.9-0.5c3.6,0,6.9,0.2,9.8,0.5c9.9,4,14,10.7,18.1,21.8  c2.7,7.4,6.4,11.9,10.5,12.6c0.3,0.1,0.7,0.1,1.1,0.1c1.4,0,3.3-0.5,5.2-2.2C95.9,40.4,94.2,44,89.3,47.3z"/></svg>